<svg width="100" height="100">
 <path d="m50 100c13.262 0 25.98-5.2695 35.355-14.645s14.645-22.094 14.645-35.355-5.2695-25.98-14.645-35.355-22.094-14.645-35.355-14.645-25.98 5.2695-35.355 14.645-14.645 22.094-14.645 35.355 5.2695 25.98 14.645 35.355 22.094 14.645 35.355 14.645zm0.19922-79.25c1.0977-1.0781 2.4883-1.8086 4-2.1016 0.42969-0.078126 0.87891-0.10938 1.1992-0.14844 2.0117-0.10938 3.8906 1 4.7734 2.8086 0.66016 1.3633 0.71484 2.9453 0.14844 4.3516-0.98047 2.9023-3.4922 5.0195-6.5195 5.4883-1.5117 0.32812-3.0898-0.039063-4.3008-1-0.96484-0.74609-1.582-1.8477-1.7188-3.0586-0.31641-2.3867 0.59375-4.7695 2.418-6.3398zm-10.668 25.391c0.48047-2.2461 0.95703-4.4961 1.4297-6.75 0-0.19141 0.12109-0.21875 0.28906-0.21875h16.68c-0.12891 0.60156-0.23828 1.1719-0.35938 1.7305l-1.7383 8.1719c-0.79297 3.7266-1.5781 7.4492-2.3594 11.172-0.71875 3.375-1.4297 6.7422-2.1289 10.109l-0.003906-0.003907c-0.13281 0.61328-0.21484 1.2383-0.25 1.8672-0.039063 0.44141 0.10938 0.875 0.41406 1.1953 0.30078 0.31641 0.72656 0.49219 1.168 0.47656 0.98438 0.023437 1.9648-0.18359 2.8594-0.60156 0.42188-0.16016 0.82031-0.35937 1.2812-0.57031 0 0.21094-0.070312 0.39062-0.10938 0.57812-0.41016 1.9297-0.80859 3.8516-1.2188 5.7812h-0.003906c-0.03125 0.11719-0.10156 0.21484-0.19922 0.28125-1.543 0.91406-3.2383 1.5469-5 1.8711-1.0469 0.19922-2.1094 0.28906-3.1719 0.26953-1.5508 0.035156-3.0898-0.30469-4.4805-1-1.625-0.88281-2.7383-2.4844-3-4.3203-0.23828-1.3203-0.23828-2.6758 0-4 0.39062-2.1406 0.83984-4.2812 1.2812-6.4219 0.57031-2.7305 1.1602-5.4609 1.7383-8.1914 0.66797-3.1406 1.332-6.2812 2-9.4219 0-0.28125 0.10937-0.55078 0.17969-0.85156l-5.5273 0.007812c0.078125-0.44141 0.14844-0.80078 0.23047-1.1602z" fill="#000000" stroke-width="0"/>
</svg>
