<?xml version="1.0" encoding="UTF-8" standalone="no"?>
<svg
   xmlns:dc="http://purl.org/dc/elements/1.1/"
   xmlns:cc="http://creativecommons.org/ns#"
   xmlns:rdf="http://www.w3.org/1999/02/22-rdf-syntax-ns#"
   xmlns:svg="http://www.w3.org/2000/svg"
   xmlns="http://www.w3.org/2000/svg"
   id="svg8"
   version="1.1"
   viewBox="0 0 40 40"
   height="40mm"
   width="40mm">
  <defs
     id="defs2" />
  <metadata
     id="metadata5">
    <rdf:RDF>
      <cc:Work
         rdf:about="">
        <dc:format>image/svg+xml</dc:format>
        <dc:type
           rdf:resource="http://purl.org/dc/dcmitype/StillImage" />
        <dc:title></dc:title>
      </cc:Work>
    </rdf:RDF>
  </metadata>
  <g
     transform="translate(0,-257)"
     id="layer1">
    <g
       id="g4539">
      <path
         transform="matrix(0.26458333,0,0,0.26458333,0,257)"
         d="M 75.349609 34.015625 A 41.574803 41.574803 0 0 0 34.015625 75.589844 A 41.574803 41.574803 0 0 0 75.589844 117.16602 A 41.574803 41.574803 0 0 0 117.16602 75.589844 A 41.574803 41.574803 0 0 0 75.589844 34.015625 A 41.574803 41.574803 0 0 0 75.349609 34.015625 z M 75.515625 56.693359 A 18.897638 18.897638 0 0 1 75.589844 56.693359 A 18.897638 18.897638 0 0 1 94.488281 75.589844 A 18.897638 18.897638 0 0 1 75.589844 94.488281 A 18.897638 18.897638 0 0 1 56.693359 75.589844 A 18.897638 18.897638 0 0 1 75.515625 56.693359 z "
         style="fill:#ffffff;stroke-width:0.769289"
         id="path836" />
    </g>
  </g>
</svg>
